<svg 
 xmlns="http://www.w3.org/2000/svg"
 xmlns:xlink="http://www.w3.org/1999/xlink"
 width="509px" height="31px">
<path fill-rule="evenodd"  fill="rgb(61, 64, 73)"
 d="M503.230,15.069 C501.400,14.723 501.400,12.264 503.230,11.918 C505.685,11.453 508.999,13.494 508.999,13.494 C508.999,13.494 505.685,15.534 503.230,15.069 ZM498.379,24.265 C499.162,20.206 494.117,16.505 490.068,14.237 C489.594,13.966 489.120,13.716 488.679,13.499 C489.120,13.271 489.594,13.022 490.083,12.750 C494.133,10.482 499.162,6.781 498.379,2.722 C503.310,5.892 500.747,10.819 492.713,13.499 C500.747,16.169 503.310,21.096 498.379,24.265 ZM484.547,12.805 C479.191,9.964 472.098,9.466 466.207,9.208 C448.958,8.452 431.625,12.341 415.300,17.624 C405.718,20.724 396.255,23.656 386.346,25.544 C377.049,27.314 367.639,28.472 358.207,29.188 C334.961,30.952 311.019,30.621 287.894,27.329 C286.932,27.192 287.343,25.723 288.296,25.859 C297.092,27.111 306.467,27.742 315.478,28.163 C332.796,28.972 350.209,28.693 367.452,26.812 C377.306,25.736 387.116,24.114 396.739,21.706 C407.010,19.136 416.876,15.238 427.126,12.585 C441.442,8.879 456.628,6.442 471.428,8.081 C476.000,8.588 481.165,9.290 485.311,11.489 C486.173,11.947 485.408,13.262 484.547,12.805 ZM278.458,22.211 C280.811,25.780 278.901,29.514 278.901,29.514 C277.841,21.606 271.791,18.970 271.791,18.970 C263.115,14.687 255.778,27.025 255.778,27.025 C255.778,27.025 257.113,13.989 268.582,14.386 C271.784,14.496 274.881,15.744 277.495,17.819 C279.995,19.805 284.269,22.261 287.804,19.556 C284.291,24.242 280.664,23.254 278.458,22.211 ZM254.046,19.912 C253.775,20.402 253.526,20.876 253.298,21.318 C253.081,20.876 252.832,20.402 252.561,19.928 C250.297,15.872 246.601,10.819 242.548,11.604 C245.713,6.666 250.633,9.233 253.298,17.278 C255.975,9.233 260.895,6.666 264.060,11.604 C260.006,10.819 256.311,15.856 254.046,19.912 ZM251.731,6.746 C251.266,4.287 253.304,0.969 253.304,0.969 C253.304,0.969 255.342,4.287 254.877,6.746 C254.531,8.578 252.077,8.578 251.731,6.746 ZM234.817,18.970 C234.817,18.970 228.767,21.606 227.707,29.514 C227.707,29.514 225.797,25.780 228.150,22.211 C225.944,23.254 222.317,24.242 218.804,19.556 C222.339,22.261 226.612,19.805 229.113,17.819 C231.726,15.744 234.824,14.496 238.026,14.386 C249.494,13.989 250.830,27.025 250.830,27.025 C250.830,27.025 243.493,14.687 234.817,18.970 ZM221.105,27.381 C212.544,28.600 203.871,29.213 195.242,29.655 C178.132,30.530 160.926,30.346 143.871,28.631 C134.405,27.679 124.973,26.256 115.691,24.143 C105.484,21.820 95.749,18.086 85.691,15.249 C70.623,10.998 54.641,8.076 38.942,9.519 C34.233,9.951 28.722,10.592 24.452,12.857 C23.590,13.315 22.826,11.999 23.688,11.541 C28.927,8.762 35.684,8.151 41.457,7.805 C57.688,6.831 74.110,10.146 89.587,14.797 C99.463,17.765 109.064,21.219 119.179,23.349 C128.847,25.385 138.655,26.708 148.495,27.533 C172.287,29.527 197.162,29.263 220.703,25.911 C221.657,25.775 222.065,27.244 221.105,27.381 ZM10.620,24.265 C5.689,21.096 8.252,16.169 16.286,13.499 C8.252,10.819 5.689,5.892 10.620,2.722 C9.837,6.781 14.866,10.482 18.915,12.750 C19.405,13.022 19.879,13.271 20.320,13.499 C19.879,13.716 19.405,13.966 18.931,14.237 C14.882,16.505 9.837,20.206 10.620,24.265 ZM0.000,13.494 C0.000,13.494 3.314,11.453 5.769,11.918 C7.599,12.264 7.599,14.723 5.769,15.069 C3.314,15.534 0.000,13.494 0.000,13.494 Z"/>
</svg>