<svg 
 xmlns="http://www.w3.org/2000/svg"
 xmlns:xlink="http://www.w3.org/1999/xlink"
 width="509px" height="31px">
<path fill-rule="evenodd"  fill="rgb(61, 64, 73)"
 d="M503.230,19.082 C501.400,18.736 501.400,16.277 503.230,15.931 C505.685,15.466 508.999,17.506 508.999,17.506 C508.999,17.506 505.685,19.547 503.230,19.082 ZM498.379,28.278 C499.162,24.219 494.133,20.518 490.083,18.250 C489.594,17.978 489.120,17.729 488.680,17.501 C489.120,17.284 489.594,17.034 490.068,16.763 C494.117,14.495 499.162,10.794 498.379,6.735 C503.310,9.904 500.747,14.831 492.713,17.501 C500.747,20.181 503.310,25.108 498.379,28.278 ZM471.428,22.919 C456.628,24.558 441.442,22.121 427.126,18.415 C416.876,15.762 407.010,11.864 396.739,9.294 C387.116,6.886 377.306,5.264 367.452,4.188 C350.209,2.307 332.796,2.028 315.478,2.837 C306.467,3.258 297.092,3.889 288.296,5.141 C287.343,5.276 286.932,3.808 287.894,3.671 C311.019,0.379 334.961,0.048 358.207,1.812 C367.639,2.528 377.049,3.686 386.346,5.456 C396.255,7.344 405.718,10.276 415.300,13.376 C431.625,18.659 448.958,22.548 466.207,21.792 C472.098,21.534 479.191,21.036 484.547,18.194 C485.408,17.738 486.173,19.053 485.310,19.511 C481.165,21.710 476.000,22.412 471.428,22.919 ZM277.495,13.180 C274.881,15.256 271.784,16.504 268.582,16.614 C257.113,17.010 255.778,3.975 255.778,3.975 C255.778,3.975 263.115,16.313 271.791,12.030 C271.791,12.030 277.841,9.394 278.901,1.486 C278.901,1.486 280.811,5.220 278.458,8.789 C280.664,7.746 284.291,6.758 287.804,11.444 C284.269,8.739 279.995,11.195 277.495,13.180 ZM264.060,19.396 C260.895,24.334 255.975,21.767 253.298,13.722 C250.633,21.767 245.713,24.334 242.548,19.396 C246.601,20.181 250.297,15.128 252.561,11.072 C252.832,10.598 253.081,10.124 253.298,9.682 C253.526,10.124 253.775,10.598 254.046,11.088 C256.311,15.144 260.006,20.181 264.060,19.396 ZM238.026,16.614 C234.824,16.504 231.726,15.256 229.113,13.180 C226.612,11.195 222.339,8.739 218.804,11.444 C222.317,6.758 225.944,7.746 228.150,8.789 C225.797,5.220 227.707,1.486 227.707,1.486 C228.767,9.394 234.817,12.030 234.817,12.030 C243.493,16.313 250.830,3.975 250.830,3.975 C250.830,3.975 249.494,17.010 238.026,16.614 ZM220.703,5.089 C197.162,1.737 172.287,1.473 148.495,3.467 C138.655,4.292 128.847,5.615 119.179,7.651 C109.064,9.781 99.463,13.235 89.587,16.203 C74.110,20.854 57.688,24.169 41.457,23.195 C35.684,22.849 28.927,22.238 23.688,19.458 C22.826,19.001 23.590,17.685 24.452,18.142 C28.722,20.408 34.233,21.049 38.942,21.481 C54.641,22.924 70.623,20.002 85.691,15.751 C95.749,12.914 105.484,9.180 115.691,6.857 C124.973,4.744 134.405,3.320 143.871,2.369 C160.926,0.654 178.132,0.470 195.242,1.345 C203.871,1.787 212.544,2.400 221.105,3.619 C222.066,3.756 221.657,5.225 220.703,5.089 ZM10.620,28.278 C5.689,25.108 8.252,20.181 16.286,17.501 C8.252,14.831 5.689,9.904 10.620,6.735 C9.837,10.794 14.882,14.495 18.931,16.763 C19.405,17.034 19.879,17.284 20.320,17.501 C19.879,17.729 19.405,17.978 18.915,18.250 C14.866,20.518 9.837,24.219 10.620,28.278 ZM0.001,17.506 C0.001,17.506 3.314,15.466 5.769,15.931 C7.599,16.277 7.599,18.736 5.769,19.082 C3.314,19.547 0.001,17.506 0.001,17.506 ZM254.877,24.254 C255.342,26.713 253.304,30.031 253.304,30.031 C253.304,30.031 251.266,26.713 251.731,24.254 C252.077,22.422 254.531,22.422 254.877,24.254 Z"/>
</svg>